<?xml version="1.0" encoding="UTF-8"?>
<svg version="1.1" xmlns="http://www.w3.org/2000/svg" width="1074" height="1074">
<path d="M0 0 C1.45530674 -0.0013476 2.91061314 -0.00313203 4.36591887 -0.00531223 C8.36942359 -0.01003766 12.37290554 -0.00854204 16.37641137 -0.00603446 C20.73035744 -0.00440097 25.08429864 -0.00854257 29.43824315 -0.01194364 C37.07070271 -0.01709834 44.70315593 -0.01851472 52.33561707 -0.01748753 C63.68546665 -0.01596377 75.03530921 -0.02012176 86.38515743 -0.02536215 C107.83460303 -0.03503883 129.28404625 -0.03784651 150.73349378 -0.03841921 C167.29594079 -0.03887854 183.85838687 -0.04093577 200.42083359 -0.04411983 C205.18623837 -0.04501736 209.95164315 -0.04590718 214.71704793 -0.04679471 C216.49402598 -0.04712628 216.49402598 -0.04712628 218.30690258 -0.04746456 C251.63406534 -0.05361972 284.96122777 -0.05756502 318.28839111 -0.05712128 C319.54519158 -0.0571057 320.80199206 -0.05709012 322.09687739 -0.05707407 C328.46704211 -0.05699096 334.83720684 -0.05689192 341.20737156 -0.05678936 C342.47253719 -0.05676942 343.73770282 -0.05674947 345.0412068 -0.05672892 C347.59968033 -0.05668848 350.15815386 -0.05664669 352.71662739 -0.05660353 C392.52754595 -0.05599069 432.33845598 -0.06349846 472.1493721 -0.07717609 C516.86380265 -0.09253203 561.5782276 -0.10114262 606.29266095 -0.10021287 C611.05932315 -0.10013824 615.82598535 -0.10008953 620.59264755 -0.10005856 C621.76634438 -0.1000469 622.94004121 -0.10003525 624.14930461 -0.10002324 C643.04814609 -0.09999245 661.94698019 -0.10638196 680.84581948 -0.11499082 C699.83481087 -0.12346193 718.82379145 -0.1244615 737.81278369 -0.1178815 C749.09698116 -0.11418228 760.38114579 -0.1160293 771.66533979 -0.12582384 C779.20210201 -0.1318135 786.7388404 -0.13053966 794.27560152 -0.12335334 C798.57029136 -0.11946329 802.86491756 -0.11872079 807.15960297 -0.12681069 C811.07048693 -0.13411311 814.98125449 -0.13212539 818.89213336 -0.12288683 C820.2943712 -0.12117261 821.69661827 -0.12277056 823.0988467 -0.12818803 C834.99451975 -0.17105004 845.99496929 0.9986402 857.1493721 5.25363445 C858.36681107 5.71431316 858.36681107 5.71431316 859.60884476 6.18429852 C884.07167965 15.73805985 903.14362579 33.85302103 914.5243721 57.50363445 C920.58958701 71.69792213 922.92701227 84.87267429 922.90579987 100.25686264 C922.90745064 101.71380958 922.90953744 103.17075609 922.91201997 104.62770185 C922.91758171 108.64043522 922.9169151 112.65314723 922.91524238 116.66588323 C922.91451114 121.02812633 922.91953455 125.39036341 922.9238174 129.75260395 C922.93139782 138.40867373 922.93359048 147.06473735 922.93414645 155.72081011 C922.93506004 166.0874033 922.94172744 176.45399079 922.94849328 186.82058153 C922.96455581 211.87644501 922.97045675 236.93230787 922.97524202 261.98817556 C922.97757761 273.83988665 922.98118022 285.69159725 922.9849374 297.54330796 C922.99777283 338.10860493 923.00849227 378.67390163 923.01194 419.23920059 C923.01216164 421.78580369 923.01238342 424.3324068 923.01260535 426.8790099 C923.01282599 429.43178016 923.01304648 431.98455042 923.0132668 434.53732067 C923.01370936 439.65866029 923.01415647 444.77999991 923.01460648 449.90133953 C923.01471587 451.17113467 923.01482526 452.44092982 923.01493796 453.7492036 C923.0185691 494.9281151 923.03449132 536.10700899 923.05779684 577.28591374 C923.08238873 620.81728015 923.09611253 664.34863651 923.09730792 707.88001007 C923.09747938 712.65795768 923.09769481 717.43590528 923.09794235 722.21385288 C923.09799812 723.39032767 923.09805389 724.56680245 923.09811135 725.77892799 C923.09926232 744.71741712 923.11028821 763.65588821 923.12482941 782.59437124 C923.13919045 801.62721046 923.1424336 820.66002652 923.13438943 839.69286967 C923.12993141 851.00109718 923.13380073 862.30924998 923.14962794 873.61746769 C923.15937454 881.17283447 923.15820271 888.72814888 923.14819171 896.28351518 C923.14279744 900.58723209 923.14209683 904.89080548 923.15470043 909.19451053 C923.16608857 913.11596165 923.1634614 917.03715324 923.15003335 920.95859563 C923.14761383 922.36240114 923.15013174 923.76622698 923.15842983 925.17001006 C923.31462784 953.4728776 911.80271002 977.66297164 892.34077835 997.6247282 C873.06855367 1015.88429083 848.80285038 1024.29612825 822.64614391 1024.26006222 C821.18919697 1024.26171299 819.73225047 1024.26379979 818.2753047 1024.26628232 C814.26257133 1024.27184406 810.24985932 1024.27117746 806.23712333 1024.26950473 C801.87488023 1024.26877349 797.51264314 1024.27379691 793.15040261 1024.27807975 C784.49433282 1024.28566017 775.8382692 1024.28785283 767.18219645 1024.2884088 C756.81560325 1024.2893224 746.44901576 1024.29598979 736.08242502 1024.30275563 C711.02656155 1024.31881816 685.97069868 1024.3247191 660.91483099 1024.32950438 C649.0631199 1024.33183997 637.2114093 1024.33544257 625.3596986 1024.33919975 C584.79440162 1024.35203519 544.22910492 1024.36275462 503.66380596 1024.36620235 C501.11720286 1024.36642399 498.57059976 1024.36664577 496.02399665 1024.36686771 C493.4712264 1024.36708835 490.91845614 1024.36730883 488.36568588 1024.36752915 C483.24434626 1024.36797171 478.12300664 1024.36841882 473.00166702 1024.36886883 C471.73187188 1024.36897822 470.46207674 1024.36908761 469.15380295 1024.36920032 C427.97489146 1024.37283145 386.79599757 1024.38875367 345.61709281 1024.41205919 C302.0857264 1024.43665109 258.55437005 1024.45037489 215.02299649 1024.45157027 C210.24504888 1024.45174173 205.46710128 1024.45195716 200.68915367 1024.4522047 C198.92444149 1024.45228836 198.92444149 1024.45228836 197.12407857 1024.4523737 C178.18558943 1024.45352467 159.24711835 1024.46455056 140.30863531 1024.47909176 C121.27579609 1024.4934528 102.24298003 1024.49669595 83.21013688 1024.48865178 C71.90190937 1024.48419376 60.59375657 1024.48806308 49.28553887 1024.50389029 C41.73017208 1024.51363689 34.17485767 1024.51246506 26.61949138 1024.50245406 C22.31577446 1024.49705979 18.01220108 1024.49635918 13.70849603 1024.50896278 C9.78704491 1024.52035092 5.86585331 1024.51772375 1.94441092 1024.50429571 C0.54060541 1024.50187618 -0.86322043 1024.5043941 -2.2670035 1024.51269218 C-30.56987105 1024.66889019 -54.75996509 1013.15697237 -74.72172165 993.6950407 C-93.02485865 974.37682505 -101.567361 949.8212903 -101.4828968 923.5193882 C-101.48559435 922.05898849 -101.48916454 920.59859018 -101.49352127 919.13819447 C-101.50294063 915.13447607 -101.49999121 911.13084913 -101.49496573 907.12712635 C-101.49169055 902.76766212 -101.49998875 898.40821709 -101.50678408 894.04875904 C-101.51708037 886.41109025 -101.51992852 878.7734468 -101.51787186 871.13577175 C-101.51482091 859.77790194 -101.52314796 848.42006016 -101.53362111 837.0621958 C-101.55296254 815.59559833 -101.55858939 794.12901041 -101.55973522 772.66240525 C-101.56065436 756.08387129 -101.5647713 739.50534109 -101.57113647 722.92680836 C-101.57293157 718.15442199 -101.5747112 713.38203562 -101.57648623 708.60964924 C-101.57692833 707.42321147 -101.57737042 706.23677369 -101.57782592 705.01438326 C-101.59013436 671.64185301 -101.59802704 638.26932407 -101.59713936 604.89679146 C-101.5971082 603.63857462 -101.59707704 602.38035779 -101.59704494 601.08401318 C-101.59687873 594.70687561 -101.59668065 588.32973804 -101.59647553 581.95260047 C-101.59643564 580.68608317 -101.59639575 579.41956586 -101.59635465 578.11466924 C-101.59627377 575.55346214 -101.59619018 572.99225504 -101.59610386 570.43104794 C-101.59487845 530.58600684 -101.60988973 490.74099979 -101.63724899 450.89596844 C-101.66797616 406.12761906 -101.6851811 361.35929206 -101.68332255 316.59093148 C-101.68317329 311.81634462 -101.68307587 307.04175776 -101.68301392 302.26717091 C-101.68299061 301.09155181 -101.6829673 299.91593272 -101.68294328 298.70468881 C-101.68288176 279.79324008 -101.69564867 260.88182092 -101.71287845 241.97038098 C-101.72983969 222.96035802 -101.7318049 203.95037829 -101.7186598 184.94035196 C-101.7112739 173.65069905 -101.71491791 162.36117753 -101.73454448 151.07153857 C-101.74655617 143.52358736 -101.74394017 135.97573119 -101.72960349 128.42778432 C-101.72185057 124.13162419 -101.72025944 119.83571807 -101.73651819 115.53957599 C-101.85659555 81.53304995 -96.59847999 53.47575648 -72.2256279 28.12863445 C-52.15468925 8.5885308 -27.50497912 -0.04394495 0 0 Z " fill="#002343" transform="translate(126.22562789916992,24.871365547180176)"/>
<path d="M0 0 C1.0965667 -0.01052147 1.0965667 -0.01052147 2.21528625 -0.02125549 C4.56676459 -0.03868008 6.91799068 -0.04510967 9.26953125 -0.046875 C10.07471191 -0.04754974 10.87989258 -0.04822449 11.70947266 -0.04891968 C24.38510576 -0.03205708 36.64866769 0.54085581 49.08203125 3.203125 C49.92072754 3.38004883 50.75942383 3.55697266 51.62353516 3.73925781 C81.10286546 10.14275894 106.14832854 23.54910964 128.83984375 43.47265625 C129.46455566 44.02018555 130.08926758 44.56771484 130.73291016 45.13183594 C131.93884388 46.19733745 133.13689169 47.27185164 134.32568359 48.35644531 C138.62875648 52.19649164 138.62875648 52.19649164 144.08203125 53.203125 C147.15085366 52.50640885 150.10081864 51.51669426 153.08203125 50.515625 C160.41515491 48.18090633 167.7025659 46.29958526 175.26953125 44.890625 C176.11708984 44.73182861 176.96464844 44.57303223 177.83789062 44.40942383 C223.59776895 36.1883565 270.14779941 46.49338905 308.23193359 72.85473633 C314.49058604 77.3307836 320.10777456 82.36210118 325.59130859 87.74755859 C327.02279963 89.14529026 328.48354899 90.51286532 329.9453125 91.87890625 C349.22200686 110.28310525 362.74317626 135.1132472 370.45703125 160.453125 C370.7967395 161.56627075 370.7967395 161.56627075 371.14331055 162.7019043 C374.21215902 173.4100058 376.20938534 184.1562625 376.53125 195.2890625 C376.55451355 196.05138184 376.5777771 196.81370117 376.60174561 197.59912109 C376.6881086 200.71507835 376.76343682 203.8296668 376.78881836 206.94677734 C376.90587631 217.73171649 378.18233648 224.29683695 386.08203125 232.203125 C387.01003433 233.41084477 387.91005571 234.64102804 388.76953125 235.8984375 C389.34598389 236.74088013 389.34598389 236.74088013 389.93408203 237.6003418 C408.87538301 266.10897366 419.49297304 298.80331761 419.39770508 333.07861328 C419.39455281 335.43699816 419.41808386 337.79411321 419.44335938 340.15234375 C419.50516765 354.75818148 417.47626038 368.88480881 413.26953125 382.890625 C413.01091309 383.76871826 412.75229492 384.64681152 412.48583984 385.55151367 C404.48902637 412.08727541 391.03319913 435.24242734 373.08203125 456.203125 C372.28796875 457.14027344 371.49390625 458.07742188 370.67578125 459.04296875 C340.83748295 493.25971299 295.32693398 515.56738247 250.18359375 519.07446289 C247.09564765 519.20256015 244.08935013 519.11740096 241.00390625 518.95703125 C228.36121099 518.25278856 228.36121099 518.25278856 217.29296875 523.51171875 C213.81312129 526.85888921 210.73218106 530.51487208 207.70458984 534.27099609 C204.09271258 538.57198868 199.5368952 541.82953871 195.08203125 545.203125 C194.26581299 545.83395996 194.26581299 545.83395996 193.43310547 546.47753906 C158.73102505 573.24249269 118.02381533 587.69810992 74.14453125 587.578125 C73.28831177 587.57658417 72.43209229 587.57504333 71.54992676 587.57345581 C27.97001302 587.38738586 -15.72548678 571.94295695 -48.91796875 543.203125 C-49.69914063 542.53152344 -50.4803125 541.85992188 -51.28515625 541.16796875 C-56.36358651 536.69797662 -61.22826772 532.01612128 -66.04296875 527.265625 C-66.91465698 526.4135144 -66.91465698 526.4135144 -67.80395508 525.54418945 C-69.215129 524.13598956 -70.57189578 522.67367807 -71.91796875 521.203125 C-71.91796875 520.543125 -71.91796875 519.883125 -71.91796875 519.203125 C-72.90796875 519.533125 -73.89796875 519.863125 -74.91796875 520.203125 C-122.9477289 523.39191402 -170.37995136 509.82835294 -207.33984375 478.48046875 C-212.26946857 474.12596682 -217.13064956 469.71387279 -221.91796875 465.203125 C-223.09166016 464.11064453 -223.09166016 464.11064453 -224.2890625 462.99609375 C-239.2841279 448.58907013 -250.16610949 430.91563756 -258.91796875 412.203125 C-259.45292969 411.07390625 -259.98789062 409.9446875 -260.5390625 408.78125 C-271.2705311 385.03264935 -275.14941751 360.62322245 -275.16796875 334.765625 C-275.16864349 333.91930511 -275.16931824 333.07298523 -275.17001343 332.20101929 C-275.15409785 319.62994237 -274.7185371 307.50542125 -271.91796875 295.203125 C-271.6844873 294.09324219 -271.6844873 294.09324219 -271.44628906 292.9609375 C-264.52561443 260.58157357 -248.49018215 230.1569286 -226.91796875 205.203125 C-226.21285156 204.37554687 -225.50773437 203.54796875 -224.78125 202.6953125 C-210.85797785 186.74729162 -190.65290305 167.4389645 -169.91796875 161.203125 C-169.96953125 160.12417969 -170.02109375 159.04523438 -170.07421875 157.93359375 C-170.02168221 128.00746928 -152.11579853 93.10182047 -133.91796875 70.203125 C-133.11488281 69.17960937 -132.31179688 68.15609375 -131.484375 67.1015625 C-119.01546176 51.60768946 -104.82593851 37.73642015 -87.91796875 27.203125 C-87.26119141 26.79271973 -86.60441406 26.38231445 -85.92773438 25.95947266 C-60.7099764 10.47125264 -29.74775599 0.19244152 0 0 Z " fill="#002141" transform="translate(468.91796875,262.796875)"/>
<path d="M0 0 C1.0965667 -0.01052147 1.0965667 -0.01052147 2.21528625 -0.02125549 C4.56676459 -0.03868008 6.91799068 -0.04510967 9.26953125 -0.046875 C10.07471191 -0.04754974 10.87989258 -0.04822449 11.70947266 -0.04891968 C24.38510576 -0.03205708 36.64866769 0.54085581 49.08203125 3.203125 C49.92072754 3.38004883 50.75942383 3.55697266 51.62353516 3.73925781 C81.10286546 10.14275894 106.14832854 23.54910964 128.83984375 43.47265625 C129.46455566 44.02018555 130.08926758 44.56771484 130.73291016 45.13183594 C131.93884388 46.19733745 133.13689169 47.27185164 134.32568359 48.35644531 C138.62875648 52.19649164 138.62875648 52.19649164 144.08203125 53.203125 C147.15085366 52.50640885 150.10081864 51.51669426 153.08203125 50.515625 C160.41515491 48.18090633 167.7025659 46.29958526 175.26953125 44.890625 C176.11708984 44.73182861 176.96464844 44.57303223 177.83789062 44.40942383 C223.59776895 36.1883565 270.14779941 46.49338905 308.23193359 72.85473633 C314.49058604 77.3307836 320.10777456 82.36210118 325.59130859 87.74755859 C327.02279963 89.14529026 328.48354899 90.51286532 329.9453125 91.87890625 C349.22200686 110.28310525 362.74317626 135.1132472 370.45703125 160.453125 C370.7967395 161.56627075 370.7967395 161.56627075 371.14331055 162.7019043 C374.21215902 173.4100058 376.20938534 184.1562625 376.53125 195.2890625 C376.55451355 196.05138184 376.5777771 196.81370117 376.60174561 197.59912109 C376.6881086 200.71507835 376.76343682 203.8296668 376.78881836 206.94677734 C376.90587631 217.73171649 378.18233648 224.29683695 386.08203125 232.203125 C387.01003433 233.41084477 387.91005571 234.64102804 388.76953125 235.8984375 C389.34598389 236.74088013 389.34598389 236.74088013 389.93408203 237.6003418 C408.87538301 266.10897366 419.49297304 298.80331761 419.39770508 333.07861328 C419.39455281 335.43699816 419.41808386 337.79411321 419.44335938 340.15234375 C419.50516765 354.75818148 417.47626038 368.88480881 413.26953125 382.890625 C413.01091309 383.76871826 412.75229492 384.64681152 412.48583984 385.55151367 C404.48902637 412.08727541 391.03319913 435.24242734 373.08203125 456.203125 C372.28796875 457.14027344 371.49390625 458.07742188 370.67578125 459.04296875 C340.83748295 493.25971299 295.32693398 515.56738247 250.18359375 519.07446289 C247.09564765 519.20256015 244.08935013 519.11740096 241.00390625 518.95703125 C228.36121099 518.25278856 228.36121099 518.25278856 217.29296875 523.51171875 C213.81312129 526.85888921 210.73218106 530.51487208 207.70458984 534.27099609 C204.09271258 538.57198868 199.5368952 541.82953871 195.08203125 545.203125 C194.26581299 545.83395996 194.26581299 545.83395996 193.43310547 546.47753906 C158.73102505 573.24249269 118.02381533 587.69810992 74.14453125 587.578125 C73.28831177 587.57658417 72.43209229 587.57504333 71.54992676 587.57345581 C27.97001302 587.38738586 -15.72548678 571.94295695 -48.91796875 543.203125 C-49.69914063 542.53152344 -50.4803125 541.85992188 -51.28515625 541.16796875 C-56.36358651 536.69797662 -61.22826772 532.01612128 -66.04296875 527.265625 C-66.91465698 526.4135144 -66.91465698 526.4135144 -67.80395508 525.54418945 C-69.215129 524.13598956 -70.57189578 522.67367807 -71.91796875 521.203125 C-71.91796875 520.543125 -71.91796875 519.883125 -71.91796875 519.203125 C-72.90796875 519.533125 -73.89796875 519.863125 -74.91796875 520.203125 C-122.9477289 523.39191402 -170.37995136 509.82835294 -207.33984375 478.48046875 C-212.26946857 474.12596682 -217.13064956 469.71387279 -221.91796875 465.203125 C-223.09166016 464.11064453 -223.09166016 464.11064453 -224.2890625 462.99609375 C-239.2841279 448.58907013 -250.16610949 430.91563756 -258.91796875 412.203125 C-259.45292969 411.07390625 -259.98789062 409.9446875 -260.5390625 408.78125 C-271.2705311 385.03264935 -275.14941751 360.62322245 -275.16796875 334.765625 C-275.16864349 333.91930511 -275.16931824 333.07298523 -275.17001343 332.20101929 C-275.15409785 319.62994237 -274.7185371 307.50542125 -271.91796875 295.203125 C-271.6844873 294.09324219 -271.6844873 294.09324219 -271.44628906 292.9609375 C-264.52561443 260.58157357 -248.49018215 230.1569286 -226.91796875 205.203125 C-226.21285156 204.37554687 -225.50773437 203.54796875 -224.78125 202.6953125 C-210.85797785 186.74729162 -190.65290305 167.4389645 -169.91796875 161.203125 C-169.96953125 160.12417969 -170.02109375 159.04523438 -170.07421875 157.93359375 C-170.02168221 128.00746928 -152.11579853 93.10182047 -133.91796875 70.203125 C-133.11488281 69.17960937 -132.31179688 68.15609375 -131.484375 67.1015625 C-119.01546176 51.60768946 -104.82593851 37.73642015 -87.91796875 27.203125 C-87.26119141 26.79271973 -86.60441406 26.38231445 -85.92773438 25.95947266 C-60.7099764 10.47125264 -29.74775599 0.19244152 0 0 Z M-97.85546875 85.265625 C-120.17218755 110.44614809 -134.02286483 142.38609663 -134.45263672 176.11108398 C-134.65122149 184.7577275 -134.65122149 184.7577275 -137.91796875 188.203125 C-140.64845434 189.6803301 -143.50472311 190.70623651 -146.41796875 191.765625 C-182.92672527 206.13012807 -210.68604888 237.8179602 -226.29296875 273.26953125 C-242.51869893 311.7085966 -243.1432247 353.16387938 -227.60546875 391.890625 C-222.3575712 404.44430673 -215.4409713 415.5770439 -206.91796875 426.203125 C-206.49644531 426.73292969 -206.07492187 427.26273438 -205.640625 427.80859375 C-181.12370407 458.43655728 -145.42654969 478.00467561 -106.421875 482.82421875 C-93.50621903 484.08396958 -80.53732447 483.95429507 -67.9140625 480.859375 C-61.26246282 479.40244052 -61.26246282 479.40244052 -57.99609375 481.34765625 C-54.27032178 484.74702512 -50.99295995 488.25024061 -47.85546875 492.203125 C-28.52806117 516.33752074 -3.38243983 532.71186066 25.89453125 542.328125 C27.46557617 542.84741577 27.46557617 542.84741577 29.06835938 543.37719727 C36.66110651 545.84178796 44.18316499 547.95864216 52.08203125 549.203125 C53.20738281 549.38488281 54.33273437 549.56664062 55.4921875 549.75390625 C72.64802289 551.80634138 92.3891826 551.70862805 109.08203125 547.203125 C109.86400879 546.99913086 110.64598633 546.79513672 111.45166016 546.58496094 C140.78534014 538.79063174 165.29314539 524.24066997 187.08203125 503.203125 C187.80777344 502.51734375 188.53351563 501.8315625 189.28125 501.125 C193.93938852 496.62243782 197.94992046 491.74913332 201.90625 486.62109375 C204.20597462 484.06538542 205.93622322 482.58671961 209.08203125 481.203125 C212.04296875 481.12890625 212.04296875 481.12890625 215.45703125 481.515625 C256.02578799 485.229341 294.17801835 475.44429234 326.45703125 450.140625 C357.02699846 424.21476785 377.37183322 390.32578134 382.08203125 350.203125 C382.36165065 345.63611813 382.41652988 341.09038426 382.39453125 336.515625 C382.38715942 334.68197388 382.38715942 334.68197388 382.37963867 332.8112793 C382.25355379 323.00704813 381.38155766 313.73006063 379.08203125 304.203125 C378.92105957 303.51283203 378.76008789 302.82253906 378.59423828 302.11132812 C372.98920533 278.82971189 360.88202314 258.69905869 344.26171875 241.62109375 C341.7800851 238.8681704 340.18235168 236.8049923 339.94677734 233.04345703 C339.99914551 232.27372559 340.05151367 231.50399414 340.10546875 230.7109375 C340.1832959 229.41724243 340.1832959 229.41724243 340.26269531 228.09741211 C340.32682617 227.18354736 340.39095703 226.26968262 340.45703125 225.328125 C340.5657582 223.41547478 340.67252903 221.50271235 340.77734375 219.58984375 C340.83051758 218.66091309 340.88369141 217.73198242 340.93847656 216.77490234 C342.91874376 181.29848288 331.11253463 148.86007904 307.83203125 122.265625 C284.27215669 96.60360675 251.0324457 80.82529613 216.08203125 79.203125 C188.89104989 78.07817017 163.15677412 83.67369147 139.02294922 96.27856445 C136.02154162 97.70829157 134.3895927 97.77558756 131.08203125 97.203125 C126.47040933 94.23344319 122.89380962 90.03391341 119.26025391 85.97753906 C95.67123969 59.64757754 62.6681091 41.01448459 27.08203125 38.203125 C-22.1819088 36.33742276 -63.10840698 48.59731969 -97.85546875 85.265625 Z " fill="#FEFBEF" transform="translate(468.91796875,262.796875)"/>
<path d="M0 0 C2.65313082 1.02553405 5.22516358 2.09222786 7.81640625 3.25390625 C8.57239609 3.58607651 9.32838593 3.91824677 10.10728455 4.26048279 C12.59510038 5.35504471 15.07869305 6.4588752 17.5625 7.5625 C19.31736056 8.33607587 21.07257473 9.10885001 22.828125 9.88085938 C25.53942326 11.07327587 28.25049245 12.26618498 30.96047974 13.46157837 C39.03751361 17.02396828 47.13693895 20.53299829 55.24362183 24.02728271 C65.58773304 28.48659538 75.92479542 32.96192029 86.25 37.46484375 C87.10259903 37.83664764 87.95519806 38.20845154 88.83363342 38.59152222 C93.0455933 40.42888245 97.25666014 42.26825955 101.46655273 44.11035156 C108.26346722 47.0820937 115.06092563 50.04470165 121.91015625 52.89453125 C122.88984375 53.30388916 123.86953125 53.71324707 124.87890625 54.13500977 C126.57944097 54.84155471 128.28350206 55.53971938 129.9921875 56.22631836 C135.45314239 58.49666428 140.11681619 60.99341836 143.35546875 66.1640625 C144.35506081 70.56226758 144.32811093 74.87905281 144.3125 79.375 C144.32861328 80.29539062 144.34472656 81.21578125 144.36132812 82.1640625 C144.36531241 87.74205584 144.0487235 92.15331136 141 97 C135.3016963 102.05451864 127.41452192 104.68988941 120.52593994 107.7572937 C116.85170897 109.39382283 113.18642969 111.05024901 109.51953125 112.703125 C108.74639587 113.05096542 107.9732605 113.39880585 107.17669678 113.75718689 C99.11945354 117.38607501 91.09752209 121.09032259 83.07821655 124.80212402 C78.96979558 126.70354706 74.85992568 128.60183206 70.75 130.5 C69.93855026 130.87477478 69.12710052 131.24954956 68.2910614 131.63568115 C56.20464742 137.21607812 44.10866379 142.77522852 31.98616028 148.27684021 C28.09931402 150.04146964 24.21913066 151.81958927 20.34460449 153.61109924 C17.50598835 154.919312 14.6586106 156.2081922 11.8125 157.5 C10.82137207 157.9633374 9.83024414 158.4266748 8.80908203 158.90405273 C3.2326826 161.40723431 -0.87689526 162.64993849 -7 162 C-12.27442632 159.24291351 -14.14078012 154.404497 -16 149 C-16.83499959 145.51526838 -17.24296763 142.14260863 -17.375 138.5625 C-17.42398437 137.65628906 -17.47296875 136.75007812 -17.5234375 135.81640625 C-16.80154549 131.93219626 -14.85723551 129.58474333 -12 127 C-8.92578125 125.0859375 -8.92578125 125.0859375 -5.3125 123.375 C-4.6222876 123.04419434 -3.9320752 122.71338867 -3.22094727 122.37255859 C-0.821885 121.230691 1.58793152 120.11411512 4 119 C4.8775293 118.59072266 5.75505859 118.18144531 6.65917969 117.75976562 C12.4501111 115.05908029 18.25350708 112.38615563 24.06213379 109.72377014 C31.84482235 106.15598875 39.61974473 102.57137671 47.39401245 98.98529053 C49.85605618 97.85005337 52.3187366 96.71620713 54.78149414 95.58251953 C65.89040548 90.46361055 76.95527236 85.25589497 88 80 C84.13498669 76.638947 79.57498226 74.91856905 74.91796875 72.9296875 C74.00770432 72.53581345 73.09743988 72.14193939 72.15959167 71.73612976 C69.17098478 70.44418262 66.17926508 69.15961462 63.1875 67.875 C61.11580657 66.98094701 59.04435704 66.08632865 56.97314453 65.19116211 C52.73113294 63.35810213 48.48815331 61.52730865 44.24462891 59.69775391 C38.38976871 57.17114567 32.54272218 54.62696866 26.69921875 52.07421875 C25.81705185 51.68888977 24.93488495 51.30356079 24.02598572 50.90655518 C20.66690162 49.43887826 17.30807556 47.97061269 13.94955444 46.50164795 C11.66208276 45.50148018 9.3741409 44.50239873 7.0859375 43.50390625 C6.38136414 43.19604691 5.67679077 42.88818756 4.9508667 42.57099915 C-0.22017626 40.31914156 -5.42569306 38.16131706 -10.66235352 36.06591797 C-14.74809112 34.20290696 -16.02717451 33.16485381 -18 29 C-18.56247631 20.38978573 -17.07026757 11.65533768 -13 4 C-8.53890858 -0.46109142 -6.09868425 -1.38866027 0 0 Z " fill="#FDFBEF" transform="translate(398,447)"/>
<path d="M0 0 C0.9307988 -0.00990463 1.8615976 -0.01980927 2.82060242 -0.03001404 C3.83472702 -0.02551239 4.84885162 -0.02101074 5.89370728 -0.01637268 C6.96729996 -0.02323593 8.04089264 -0.03009918 9.14701843 -0.03717041 C12.70024803 -0.05548954 16.25303819 -0.05159311 19.80630493 -0.0459137 C22.27486312 -0.05047338 24.74342004 -0.05577831 27.2119751 -0.0617981 C32.38865308 -0.07073954 37.56517689 -0.06829462 42.74185181 -0.05836487 C49.37544187 -0.04688051 56.00849921 -0.06707395 62.64201927 -0.09628201 C67.74126568 -0.11463068 72.84038417 -0.11435403 77.9396553 -0.10864449 C80.38527803 -0.10849107 82.83090933 -0.11455169 85.2765007 -0.12693596 C88.69741941 -0.14181636 92.11735068 -0.13118894 95.53823853 -0.11402893 C96.54831467 -0.1236969 97.55839081 -0.13336487 98.59907532 -0.14332581 C104.49224408 -0.08143788 107.86057403 0.45698623 112.34536743 4.38768005 C115.5737577 9.13812324 115.83653883 13.33513013 115.78286743 18.88768005 C115.8028479 19.62115662 115.82282837 20.35463318 115.84341431 21.1103363 C115.83878068 26.2907296 114.88761164 29.37981639 111.34536743 33.38768005 C105.57009147 37.40367195 99.35706297 36.86328775 92.59536743 36.8993988 C91.32869736 36.9175766 90.06202728 36.93575439 88.75697327 36.95448303 C85.32907674 37.00292151 81.90126178 37.03291886 78.47312546 37.05824661 C75.63228397 37.08085502 72.79157032 37.1123967 69.95081615 37.1439352 C63.49533055 37.21550915 57.03984374 37.27308657 50.58413696 37.32029724 C44.22230479 37.36708207 37.86135367 37.44421266 31.5 37.53683472 C27.2455022 37.59552454 22.99098817 37.63662017 18.73623657 37.67176819 C16.77848259 37.69060208 14.82077837 37.71573687 12.8631897 37.74739075 C10.16819205 37.78871133 7.47423332 37.80453256 4.77896118 37.8134613 C4.0037059 37.830914 3.22845062 37.8483667 2.42970276 37.86634827 C-3.70440654 37.84187828 -7.02506348 35.71148529 -11.50228882 31.75486755 C-13.41581318 27.82403446 -13.12632734 23.82122131 -13.09213257 19.51268005 C-13.11211304 18.62709412 -13.13209351 17.74150818 -13.15267944 16.8290863 C-13.14847223 11.18300579 -12.49759699 7.80472528 -8.65463257 3.38768005 C-5.71704132 0.7879807 -3.9129678 0.01178098 0 0 Z " fill="#FEFBEF" transform="translate(569.6546325683594,583.6123199462891)"/>
<path d="M0 0 C43.42118118 -0.20638953 43.42118118 -0.20638953 61 1 C61 1.33 61 1.66 61 2 C47.32444449 2.80955718 33.7133787 3.13775919 20.015625 3.09765625 C18.09364866 3.09578412 16.17167182 3.09436399 14.24969482 3.09336853 C9.26538707 3.08960579 4.28110989 3.07983131 -0.70318604 3.06866455 C-5.8190469 3.05831374 -10.93491286 3.05384206 -16.05078125 3.04882812 C-26.03386737 3.03820138 -36.01693112 3.02120313 -46 3 C-46 2.67 -46 2.34 -46 2 C-23.23 1.505 -23.23 1.505 0 1 C0 0.67 0 0.34 0 0 Z " fill="#153351" transform="translate(612,620)"/>
<path d="M0 0 C3.1508248 0.60745083 5.16087164 1.62098344 7.71484375 3.546875 C8.74448242 4.3203125 8.74448242 4.3203125 9.79492188 5.109375 C10.50197266 5.65078125 11.20902344 6.1921875 11.9375 6.75 C12.64068359 7.2759375 13.34386719 7.801875 14.06835938 8.34375 C18.01358604 11.33132558 21.59820783 14.40515113 25 18 C21.8207387 17.4035345 19.96866005 16.42329286 17.50390625 14.34765625 C16.54194336 13.55391602 16.54194336 13.55391602 15.56054688 12.74414062 C14.90119141 12.18919922 14.24183594 11.63425781 13.5625 11.0625 C9.4553053 7.60954871 6.03859172 4.94951119 1 3 C0.67 2.01 0.34 1.02 0 0 Z " fill="#F4F3F1" transform="translate(574,290)"/>
<path d="M0 0 C0 3.51286819 -1.21361431 5.33519051 -2.98828125 8.29296875 C-4.07022238 10.05770404 -4.07022238 10.05770404 -5.0625 12.25 C-6.12760692 14.23819959 -7.34460295 15.47703471 -9 17 C-9.556875 17.556875 -10.11375 18.11375 -10.6875 18.6875 C-11.120625 19.120625 -11.55375 19.55375 -12 20 C-10.65677444 15.3266944 -8.73891649 11.75767927 -6 7.75 C-4.948125 6.19539063 -4.948125 6.19539063 -3.875 4.609375 C-2 2 -2 2 0 0 Z " fill="#090F1B" transform="translate(363,359)"/>
<path d="M0 0 C4.93865565 0.4489687 6.63759537 1.48703994 10 5 C11.56405884 6.27403469 13.14755274 7.52459916 14.75 8.75 C15.54921875 9.36359375 16.3484375 9.9771875 17.171875 10.609375 C17.77515625 11.06828125 18.3784375 11.5271875 19 12 C14.71171979 12 12.25744296 9.57696194 8.9375 7.125 C8.30005859 6.66480469 7.66261719 6.20460938 7.00585938 5.73046875 C4.5282199 3.92902382 2.16930416 2.16930416 0 0 Z " fill="#F2F3F1" transform="translate(553,320)"/>
<path d="M0 0 C-1.44390925 3.80666984 -3.34952803 5.26602582 -7 7 C-7.66 6.67 -8.32 6.34 -9 6 C-7.8803014 4.99406757 -6.7540588 3.9954151 -5.625 3 C-4.68527344 2.1646875 -4.68527344 2.1646875 -3.7265625 1.3125 C-2 0 -2 0 0 0 Z M-11 7 C-10.34 7.33 -9.68 7.66 -9 8 C-9.99 8 -10.98 8 -12 8 C-11.67 7.67 -11.34 7.34 -11 7 Z M-14 9 C-13.34 9.33 -12.68 9.66 -12 10 C-12.99 10 -13.98 10 -15 10 C-14.67 9.67 -14.34 9.34 -14 9 Z M-17 11 C-15 12 -15 12 -15 12 Z " fill="#F3F4F2" transform="translate(798,711)"/>
<path d="M0 0 C0 0.99 0 1.98 0 3 C-0.66 2.67 -1.32 2.34 -2 2 C-1.34 1.34 -0.68 0.68 0 0 Z M-4 3 C-3.34 3.33 -2.68 3.66 -2 4 C-2.90027588 5.03531726 -3.82093035 6.05294165 -4.75 7.0625 C-5.51570312 7.91521484 -5.51570312 7.91521484 -6.296875 8.78515625 C-6.85890625 9.18605469 -7.4209375 9.58695313 -8 10 C-9.32 9.67 -10.64 9.34 -12 9 C-9.36 7.02 -6.72 5.04 -4 3 Z M-14 10 C-13.01 10.495 -13.01 10.495 -12 11 C-12.99 11.495 -12.99 11.495 -14 12 C-14 11.34 -14 10.68 -14 10 Z " fill="#F2F4F2" transform="translate(640,779)"/>
<path d="M0 0 C0.66 0.33 1.32 0.66 2 1 C0.68 1.99 -0.64 2.98 -2 4 C-1.34 2.68 -0.68 1.36 0 0 Z M-5 6 C-5 9.61537605 -5.89229241 11.11165997 -8 14 C-8.99 14 -9.98 14 -11 14 C-9.02 11.36 -7.04 8.72 -5 6 Z " fill="#F3F3F0" transform="translate(246,463)"/>
<path d="M0 0 C0.66 0.66 1.32 1.32 2 2 C-0.97 4.475 -0.97 4.475 -4 7 C-4.66 6.67 -5.32 6.34 -6 6 C-4.02 4.02 -2.04 2.04 0 0 Z " fill="#E8E9E6" transform="translate(813,695)"/>
<path d="M0 0 C3.5786304 1.65167557 6.74820188 3.78286492 10 6 C9.67 6.99 9.34 7.98 9 9 C7.87105124 8.06725891 6.74699124 7.12859878 5.625 6.1875 C4.99851562 5.66542969 4.37203125 5.14335937 3.7265625 4.60546875 C2 3 2 3 0 0 Z " fill="#222D39" transform="translate(789,345)"/>
<path d="M0 0 C1 2 1 2 0.875 4 C0 6 0 6 -2.5625 7.25 C-3.366875 7.4975 -4.17125 7.745 -5 8 C-3.375 2.25 -3.375 2.25 0 0 Z " fill="#052C4D" transform="translate(848,713)"/>
<path d="M0 0 C0.99 0 1.98 0 3 0 C3.66 2.97 4.32 5.94 5 9 C2.67527795 6.14693203 1.2491742 3.45925163 0 0 Z " fill="#011124" transform="translate(824,388)"/>
<path d="M0 0 C2.31 1.98 4.62 3.96 7 6 C6.67 6.66 6.34 7.32 6 8 C3.69 6.02 1.38 4.04 -1 2 C-0.67 1.34 -0.34 0.68 0 0 Z " fill="#F6F5F3" transform="translate(764,371)"/>
</svg>
